<svg xmlns="http://www.w3.org/2000/svg" xmlns:xlink="http://www.w3.org/1999/xlink" width="200" height="200" viewBox="0 0 200 200">
  <defs>
    <clipPath id="clip-CPP">
      <rect width="200" height="200"/>
    </clipPath>
  </defs>
  <g id="CPP" clip-path="url(#clip-CPP)">
    <g id="Polygon_1" data-name="Polygon 1" transform="translate(56.098 -24.094) rotate(30)" fill="rgba(0,128,255,0.5)" stroke-linejoin="round">
      <path d="M 145.4050598144531 169.9285736083984 L 54.59494781494141 169.9285736083984 C 52.29210662841797 169.9285736083984 50.1407356262207 168.6928863525391 48.98039627075195 166.7037353515625 L 3.647052526473999 88.98941802978516 C 2.468605279922485 86.96923065185547 2.468605279922485 84.45931243896484 3.647052526473999 82.43913269042969 L 48.98039627075195 4.724839210510254 C 50.1407356262207 2.735681533813477 52.29213333129883 1.49999737739563 54.59497451782227 1.49999737739563 L 145.4050598144531 1.49999737739563 C 147.7079010009766 1.49999737739563 149.8592681884766 2.735681533813477 151.0196380615234 4.724839210510254 L 196.3529510498047 82.43913269042969 C 197.5313873291016 84.45931243896484 197.5313873291016 86.96926116943359 196.3529510498047 88.98944091796875 L 151.0196380615234 166.7037353515625 C 149.8592681884766 168.6928863525391 147.7079010009766 169.9285736083984 145.4050598144531 169.9285736083984 Z" stroke="none"/>
      <path d="M 54.594970703125 3.000015258789063 C 52.82353210449219 3.000015258789063 51.16864013671875 3.950531005859375 50.27607727050781 5.480621337890625 L 4.942718505859375 83.19492340087891 C 4.036224365234375 84.74892425537109 4.036224365234375 86.67964935302734 4.942718505859375 88.23365020751953 L 50.27606201171875 165.9479217529297 C 51.16864013671875 167.4780426025391 52.82353210449219 168.4285583496094 54.59494018554688 168.4285583496094 L 145.4050598144531 168.4285583496094 C 147.1764678955078 168.4285583496094 148.8313598632813 167.4780426025391 149.7239379882813 165.9479217529297 L 195.0572814941406 88.23365020751953 C 195.9637451171875 86.67964935302734 195.9637451171875 84.74892425537109 195.0572814941406 83.19492340087891 L 149.7239379882813 5.48065185546875 C 148.8313598632813 3.950531005859375 147.1764678955078 3.000015258789063 145.4050598144531 3.000015258789063 L 54.594970703125 3.000015258789063 M 54.594970703125 1.52587890625e-05 L 145.4050598144531 1.52587890625e-05 C 148.2503662109375 1.52587890625e-05 150.881591796875 1.51129150390625 152.3152770996094 3.969009399414063 L 197.6486053466797 81.68331146240234 C 199.1016082763672 84.17420196533203 199.1016082763672 87.25437164306641 197.6486053466797 89.74526214599609 L 152.3152770996094 167.4595336914063 C 150.881591796875 169.9172821044922 148.2503662109375 171.4285583496094 145.4050598144531 171.4285583496094 L 54.59494018554688 171.4285583496094 C 51.74961853027344 171.4285583496094 49.11842346191406 169.9172821044922 47.68472290039063 167.4595336914063 L 2.351394653320313 89.74526214599609 C 0.8983612060546875 87.25434112548828 0.8983612060546875 84.17420196533203 2.351394653320313 81.68331146240234 L 47.68475341796875 3.969009399414063 C 49.11842346191406 1.51129150390625 51.7496337890625 1.52587890625e-05 54.594970703125 1.52587890625e-05 Z" stroke="none" fill="#fff"/>
    </g>
    <g id="c" transform="translate(24.196 14.447)">
      <path id="Path_5" data-name="Path 5" d="M222.314,140.716h-5.749v5.75h-5.751v-5.75h-5.749v-5.749h5.749v-5.749h5.751v5.749h5.749v5.749m-20.979,0h-5.749v5.75h-5.749v-5.75h-5.749v-5.749h5.749v-5.749h5.749v5.749h5.749v5.749" transform="translate(-75.224 -52.693)" fill="#fff"/>
      <path id="Path_6" data-name="Path 6" d="M114.888,121.466a24.993,24.993,0,1,1-.163-24.794l21.846-12.58a50.192,50.192,0,1,0,.13,50.012l-21.813-12.638" transform="translate(-17.537 -24.007)" fill="#fff"/>
    </g>
  </g>
</svg>
