<svg xmlns="http://www.w3.org/2000/svg" xmlns:xlink="http://www.w3.org/1999/xlink" width="200" height="200" viewBox="0 0 200 200">
  <defs>
    <clipPath id="clip-React">
      <rect width="200" height="200"/>
    </clipPath>
  </defs>
  <g id="React" clip-path="url(#clip-React)">
    <g id="Background" transform="translate(56.098 -24.094) rotate(30)" fill="rgba(196,243,255,0.5)" stroke-linejoin="round">
      <path d="M 145.4050598144531 169.9285736083984 L 54.59494781494141 169.9285736083984 C 52.29210662841797 169.9285736083984 50.1407356262207 168.6928863525391 48.98039627075195 166.7037353515625 L 3.647052526473999 88.98941802978516 C 2.468605279922485 86.96923065185547 2.468605279922485 84.45931243896484 3.647052526473999 82.43913269042969 L 48.98039627075195 4.724839210510254 C 50.1407356262207 2.735681533813477 52.29213333129883 1.49999737739563 54.59497451782227 1.49999737739563 L 145.4050598144531 1.49999737739563 C 147.7079010009766 1.49999737739563 149.8592681884766 2.735681533813477 151.0196380615234 4.724839210510254 L 196.3529510498047 82.43913269042969 C 197.5313873291016 84.45931243896484 197.5313873291016 86.96926116943359 196.3529510498047 88.98944091796875 L 151.0196380615234 166.7037353515625 C 149.8592681884766 168.6928863525391 147.7079010009766 169.9285736083984 145.4050598144531 169.9285736083984 Z" stroke="none"/>
      <path d="M 54.594970703125 3.000015258789063 C 52.82353210449219 3.000015258789063 51.16864013671875 3.950531005859375 50.27607727050781 5.480621337890625 L 4.942718505859375 83.19492340087891 C 4.036224365234375 84.74892425537109 4.036224365234375 86.67964935302734 4.942718505859375 88.23365020751953 L 50.27606201171875 165.9479217529297 C 51.16864013671875 167.4780426025391 52.82353210449219 168.4285583496094 54.59494018554688 168.4285583496094 L 145.4050598144531 168.4285583496094 C 147.1764678955078 168.4285583496094 148.8313598632813 167.4780426025391 149.7239379882813 165.9479217529297 L 195.0572814941406 88.23365020751953 C 195.9637451171875 86.67964935302734 195.9637451171875 84.74892425537109 195.0572814941406 83.19492340087891 L 149.7239379882813 5.48065185546875 C 148.8313598632813 3.950531005859375 147.1764678955078 3.000015258789063 145.4050598144531 3.000015258789063 L 54.594970703125 3.000015258789063 M 54.594970703125 1.52587890625e-05 L 145.4050598144531 1.52587890625e-05 C 148.2503662109375 1.52587890625e-05 150.881591796875 1.51129150390625 152.3152770996094 3.969009399414063 L 197.6486053466797 81.68331146240234 C 199.1016082763672 84.17420196533203 199.1016082763672 87.25437164306641 197.6486053466797 89.74526214599609 L 152.3152770996094 167.4595336914063 C 150.881591796875 169.9172821044922 148.2503662109375 171.4285583496094 145.4050598144531 171.4285583496094 L 54.59494018554688 171.4285583496094 C 51.74961853027344 171.4285583496094 49.11842346191406 169.9172821044922 47.68472290039063 167.4595336914063 L 2.351394653320313 89.74526214599609 C 0.8983612060546875 87.25434112548828 0.8983612060546875 84.17420196533203 2.351394653320313 81.68331146240234 L 47.68475341796875 3.969009399414063 C 49.11842346191406 1.51129150390625 51.7496337890625 1.52587890625e-05 54.594970703125 1.52587890625e-05 Z" stroke="none" fill="#fff"/>
    </g>
    <g id="react-2" data-name="react" transform="translate(30.6 31.9)">
      <circle id="Ellipse_1" data-name="Ellipse 1" cx="12.33" cy="12.33" r="12.33" transform="translate(56.776 56.23)" fill="#61dafb"/>
      <path id="Path_7" data-name="Path 7" d="M115.938,48.226c-2.379-.865-4.867-1.731-7.463-2.488.649-2.6,1.19-5.192,1.622-7.679,2.271-14.277-.216-24.335-7.138-28.229A13.435,13.435,0,0,0,96.037,8.1c-7.571,0-17.2,5.624-26.931,15.034C59.372,13.724,49.746,8.1,42.175,8.1a13.435,13.435,0,0,0-6.922,1.731c-6.922,4-9.41,14.06-7.138,28.229.433,2.488.973,5.083,1.622,7.679a75.427,75.427,0,0,0-7.463,2.488C8.755,53.418,1.4,60.556,1.4,68.56S8.863,83.7,22.274,88.893c2.379.865,4.867,1.73,7.463,2.488-.649,2.6-1.19,5.192-1.622,7.679-2.271,14.277.216,24.335,7.138,28.229a13.435,13.435,0,0,0,6.922,1.731c7.679,0,17.305-5.624,26.931-15.034,9.734,9.41,19.36,15.034,26.931,15.034a13.435,13.435,0,0,0,6.922-1.731c6.922-4,9.41-14.06,7.138-28.229-.433-2.488-.973-5.083-1.622-7.679a75.425,75.425,0,0,0,7.463-2.488c13.52-5.192,20.874-12.33,20.874-20.333S129.457,53.418,115.938,48.226ZM99.931,15.238c4.434,2.6,5.949,10.6,4.11,21.956a65.128,65.128,0,0,1-1.514,7.138,128.5,128.5,0,0,0-17.846-2.7,156.054,156.054,0,0,0-11.248-14.06c8-7.9,16.115-13.3,22.713-13.3a7.307,7.307,0,0,1,3.785.973ZM87.817,79.375C85.87,82.836,83.6,86.3,81.22,89.758c-4,.324-8,.433-12.114.433-4.218,0-8.22-.108-12.114-.433Q53.423,84.567,50.5,79.375c-2.055-3.569-4-7.246-5.732-10.816C46.5,64.99,48.448,61.313,50.5,57.744c1.947-3.461,4.218-6.922,6.6-10.383,4-.324,8-.433,12.114-.433,4.218,0,8.22.108,12.114.433q3.569,5.192,6.489,10.383c2.055,3.569,4,7.246,5.732,10.816C91.711,72.129,89.872,75.7,87.817,79.375Zm8.977-3.569c1.622,3.785,2.92,7.463,4.11,11.14-3.677.865-7.571,1.514-11.681,2.055,1.3-2.055,2.7-4.218,3.894-6.489,1.3-2.271,2.488-4.543,3.677-6.706Zm-27.688,29.31c-2.6-2.812-5.083-5.84-7.463-8.977,2.488.108,4.975.216,7.463.216s4.975-.108,7.463-.216C74.189,99.276,71.7,102.3,69.106,105.116ZM48.989,88.893c-4.11-.541-8-1.19-11.681-2.055,1.19-3.569,2.488-7.355,4.11-11.14,1.19,2.163,2.379,4.434,3.677,6.6,1.3,2.379,2.6,4.434,3.894,6.6Zm-7.571-27.58c-1.622-3.785-2.92-7.463-4.11-11.14,3.677-.865,7.571-1.514,11.681-2.055-1.3,2.055-2.7,4.218-3.894,6.489C43.8,56.879,42.608,59.15,41.418,61.313ZM69.106,32c2.6,2.812,5.083,5.84,7.463,8.977-2.488-.108-4.975-.216-7.463-.216s-4.975.108-7.463.216c2.379-3.137,4.867-6.165,7.463-8.977ZM93.117,54.715l-3.894-6.489c4.11.541,8,1.19,11.681,2.055-1.19,3.569-2.488,7.355-4.11,11.14C95.6,59.15,94.415,56.879,93.117,54.715ZM34.171,37.194c-1.839-11.356-.324-19.36,4.11-21.956a7.307,7.307,0,0,1,3.785-.973c6.489,0,14.6,5.3,22.713,13.3a142.174,142.174,0,0,0-11.248,14.06,147.046,147.046,0,0,0-17.846,2.7c-.649-2.488-1.082-4.867-1.514-7.138ZM7.457,68.559c0-5.083,6.165-10.491,16.981-14.493A64.846,64.846,0,0,1,31.359,51.8a157.645,157.645,0,0,0,6.489,16.872,136.288,136.288,0,0,0-6.489,16.764c-14.926-4.326-23.9-10.816-23.9-16.872Zm30.825,53.321c-4.434-2.6-5.949-10.6-4.11-21.956a65.127,65.127,0,0,1,1.514-7.138,128.5,128.5,0,0,0,17.846,2.7,156.053,156.053,0,0,0,11.248,14.06c-8,7.9-16.115,13.3-22.713,13.3a7.307,7.307,0,0,1-3.785-.973Zm65.759-21.956c1.839,11.356.324,19.36-4.11,21.956a7.307,7.307,0,0,1-3.785.973c-6.489,0-14.6-5.3-22.713-13.3A142.176,142.176,0,0,0,84.681,95.49a147.045,147.045,0,0,0,17.846-2.7C103.175,95.274,103.608,97.654,104.041,99.925Zm9.734-16.872a64.848,64.848,0,0,1-6.922,2.271,157.646,157.646,0,0,0-6.489-16.872,136.289,136.289,0,0,0,6.489-16.764c14.926,4.326,23.9,10.816,23.9,16.872C130.755,73.643,124.482,79.051,113.775,83.052Z" fill="#61dafb"/>
    </g>
  </g>
</svg>
