<svg xmlns="http://www.w3.org/2000/svg" xmlns:xlink="http://www.w3.org/1999/xlink" width="200" height="200" viewBox="0 0 200 200">
  <defs>
    <clipPath id="clip-Fabric">
      <rect width="200" height="200"/>
    </clipPath>
  </defs>
  <g id="Fabric" clip-path="url(#clip-Fabric)">
    <g id="Background" transform="translate(56.098 -24.094) rotate(30)" fill="rgba(242,255,255,0.5)" stroke-linejoin="round">
      <path d="M 145.4050598144531 169.9285736083984 L 54.59494781494141 169.9285736083984 C 52.29210662841797 169.9285736083984 50.1407356262207 168.6928863525391 48.98039627075195 166.7037353515625 L 3.647052526473999 88.98941802978516 C 2.468605279922485 86.96923065185547 2.468605279922485 84.45931243896484 3.647052526473999 82.43913269042969 L 48.98039627075195 4.724839210510254 C 50.1407356262207 2.735681533813477 52.29213333129883 1.49999737739563 54.59497451782227 1.49999737739563 L 145.4050598144531 1.49999737739563 C 147.7079010009766 1.49999737739563 149.8592681884766 2.735681533813477 151.0196380615234 4.724839210510254 L 196.3529510498047 82.43913269042969 C 197.5313873291016 84.45931243896484 197.5313873291016 86.96926116943359 196.3529510498047 88.98944091796875 L 151.0196380615234 166.7037353515625 C 149.8592681884766 168.6928863525391 147.7079010009766 169.9285736083984 145.4050598144531 169.9285736083984 Z" stroke="none"/>
      <path d="M 54.594970703125 3.000015258789063 C 52.82353210449219 3.000015258789063 51.16864013671875 3.950531005859375 50.27607727050781 5.480621337890625 L 4.942718505859375 83.19492340087891 C 4.036224365234375 84.74892425537109 4.036224365234375 86.67964935302734 4.942718505859375 88.23365020751953 L 50.27606201171875 165.9479217529297 C 51.16864013671875 167.4780426025391 52.82353210449219 168.4285583496094 54.59494018554688 168.4285583496094 L 145.4050598144531 168.4285583496094 C 147.1764678955078 168.4285583496094 148.8313598632813 167.4780426025391 149.7239379882813 165.9479217529297 L 195.0572814941406 88.23365020751953 C 195.9637451171875 86.67964935302734 195.9637451171875 84.74892425537109 195.0572814941406 83.19492340087891 L 149.7239379882813 5.48065185546875 C 148.8313598632813 3.950531005859375 147.1764678955078 3.000015258789063 145.4050598144531 3.000015258789063 L 54.594970703125 3.000015258789063 M 54.594970703125 1.52587890625e-05 L 145.4050598144531 1.52587890625e-05 C 148.2503662109375 1.52587890625e-05 150.881591796875 1.51129150390625 152.3152770996094 3.969009399414063 L 197.6486053466797 81.68331146240234 C 199.1016082763672 84.17420196533203 199.1016082763672 87.25437164306641 197.6486053466797 89.74526214599609 L 152.3152770996094 167.4595336914063 C 150.881591796875 169.9172821044922 148.2503662109375 171.4285583496094 145.4050598144531 171.4285583496094 L 54.59494018554688 171.4285583496094 C 51.74961853027344 171.4285583496094 49.11842346191406 169.9172821044922 47.68472290039063 167.4595336914063 L 2.351394653320313 89.74526214599609 C 0.8983612060546875 87.25434112548828 0.8983612060546875 84.17420196533203 2.351394653320313 81.68331146240234 L 47.68475341796875 3.969009399414063 C 49.11842346191406 1.51129150390625 51.7496337890625 1.52587890625e-05 54.594970703125 1.52587890625e-05 Z" stroke="none" fill="#fff"/>
    </g>
    <g id="fabric-2" data-name="fabric" transform="translate(30 151.328)">
      <path id="red" d="M75.347,122.917l-28.5-13.6a2.572,2.572,0,0,1-1.211-3.42l3.027-6.345a2.574,2.574,0,0,1,3.421-1.211l28.5,13.6a2.576,2.576,0,0,1,1.211,3.421l-3.028,6.345a2.574,2.574,0,0,1-2.323,1.46A2.543,2.543,0,0,1,75.347,122.917ZM106.034,102.9,88.547,94.556a2.573,2.573,0,0,1-1.211-3.421l3.027-6.345a2.575,2.575,0,0,1,3.421-1.211l17.489,8.345a2.574,2.574,0,0,1,1.21,3.421l-3.027,6.345a2.573,2.573,0,0,1-2.322,1.459A2.542,2.542,0,0,1,106.034,102.9ZM18.885,95.974,1.46,87.659A2.573,2.573,0,0,1,.249,84.239l3.028-6.344A2.57,2.57,0,0,1,6.7,76.684L24.122,85a2.573,2.573,0,0,1,1.211,3.421l-3.027,6.345a2.574,2.574,0,0,1-2.323,1.46A2.543,2.543,0,0,1,18.885,95.974Zm41.7-14.761L32.152,67.647a2.576,2.576,0,0,1-1.211-3.421l3.028-6.345A2.572,2.572,0,0,1,37.39,56.67L65.825,70.238a2.574,2.574,0,0,1,1.211,3.421L64.008,80a2.573,2.573,0,0,1-2.322,1.46A2.539,2.539,0,0,1,60.587,81.213Zm41.7-14.759-28.5-13.6a2.574,2.574,0,0,1-1.211-3.421L75.6,43.088a2.573,2.573,0,0,1,3.421-1.211l28.5,13.6a2.573,2.573,0,0,1,1.211,3.421l-3.027,6.345a2.575,2.575,0,0,1-2.324,1.459A2.545,2.545,0,0,1,102.289,66.455Zm30.653-20.033L115.49,38.093a2.573,2.573,0,0,1-1.211-3.421l3.027-6.344a2.573,2.573,0,0,1,3.421-1.211l17.452,8.327a2.573,2.573,0,0,1,1.211,3.421l-3.027,6.345a2.575,2.575,0,0,1-2.324,1.459A2.542,2.542,0,0,1,132.942,46.421ZM45.826,39.512,28.4,31.2a2.573,2.573,0,0,1-1.211-3.421l3.027-6.345a2.574,2.574,0,0,1,3.421-1.211l17.426,8.315a2.575,2.575,0,0,1,1.211,3.421L49.247,38.3a2.573,2.573,0,0,1-2.323,1.46A2.546,2.546,0,0,1,45.826,39.512Zm41.7-14.761L59.183,11.225a2.573,2.573,0,0,1-1.211-3.42L61,1.46A2.573,2.573,0,0,1,64.42.249L92.767,13.776a2.571,2.571,0,0,1,1.21,3.42l-3.026,6.345A2.577,2.577,0,0,1,88.627,25,2.539,2.539,0,0,1,87.53,24.751Z" transform="translate(0 -113.223)" fill="#f03d41"/>
      <path id="cyan" d="M84.4,139l-6.347-3.029a2.572,2.572,0,0,1-1.211-3.42l8.229-17.245a2.573,2.573,0,0,1,3.42-1.211l6.347,3.028a2.573,2.573,0,0,1,1.211,3.421L87.82,137.793a2.572,2.572,0,0,1-2.323,1.46A2.54,2.54,0,0,1,84.4,139ZM27.939,112.062l-6.348-3.029a2.572,2.572,0,0,1-1.211-3.42l8.229-17.245a2.573,2.573,0,0,1,3.421-1.211l6.347,3.028a2.573,2.573,0,0,1,1.211,3.421l-8.228,17.245a2.576,2.576,0,0,1-2.324,1.46A2.54,2.54,0,0,1,27.939,112.062Zm36.331-3.5-6.347-3.028a2.572,2.572,0,0,1-1.21-3.421l13.6-28.5A2.573,2.573,0,0,1,73.733,72.4l6.346,3.029a2.572,2.572,0,0,1,1.211,3.42l-13.6,28.5a2.576,2.576,0,0,1-2.324,1.46A2.543,2.543,0,0,1,64.269,108.557Zm41.7-14.76-6.348-3.028a2.574,2.574,0,0,1-1.211-3.421l13.6-28.5a2.573,2.573,0,0,1,3.42-1.211l6.348,3.029a2.573,2.573,0,0,1,1.211,3.42l-13.6,28.5a2.574,2.574,0,0,1-2.323,1.459A2.541,2.541,0,0,1,105.972,93.8ZM7.807,81.615,1.459,78.587A2.575,2.575,0,0,1,.248,75.166l13.6-28.5a2.575,2.575,0,0,1,3.422-1.211l6.347,3.028A2.574,2.574,0,0,1,24.828,51.9l-13.6,28.5A2.573,2.573,0,0,1,8.9,81.864,2.543,2.543,0,0,1,7.807,81.615Zm41.7-14.76-6.347-3.028a2.574,2.574,0,0,1-1.211-3.421l13.6-28.5a2.575,2.575,0,0,1,3.422-1.211l6.346,3.028a2.575,2.575,0,0,1,1.212,3.422l-13.6,28.5a2.574,2.574,0,0,1-2.323,1.46A2.543,2.543,0,0,1,49.509,66.855Zm41.7-14.76-6.347-3.028a2.572,2.572,0,0,1-1.21-3.421L91.883,28.4a2.572,2.572,0,0,1,3.42-1.211l6.347,3.028a2.573,2.573,0,0,1,1.211,3.421L94.632,50.885a2.573,2.573,0,0,1-2.323,1.46A2.543,2.543,0,0,1,91.211,52.1ZM34.748,25.153,28.4,22.125A2.574,2.574,0,0,1,27.191,18.7L35.42,1.46A2.573,2.573,0,0,1,38.841.249l6.347,3.029A2.575,2.575,0,0,1,46.4,6.7L38.169,23.942a2.574,2.574,0,0,1-2.323,1.46A2.543,2.543,0,0,1,34.748,25.153Z" transform="translate(8.185 -121.303)" fill="#9bddd4"/>
    </g>
  </g>
</svg>
