<svg xmlns="http://www.w3.org/2000/svg" xmlns:xlink="http://www.w3.org/1999/xlink" width="200" height="200" viewBox="0 0 200 200">
  <defs>
    <clipPath id="clip-Node">
      <rect width="200" height="200"/>
    </clipPath>
  </defs>
  <g id="Node" clip-path="url(#clip-Node)">
    <g id="Background" transform="translate(56.098 -24.094) rotate(30)" fill="rgba(215,255,212,0.5)" stroke-linejoin="round">
      <path d="M 145.4050598144531 169.9285736083984 L 54.59494781494141 169.9285736083984 C 52.29210662841797 169.9285736083984 50.1407356262207 168.6928863525391 48.98039627075195 166.7037353515625 L 3.647052526473999 88.98941802978516 C 2.468605279922485 86.96923065185547 2.468605279922485 84.45931243896484 3.647052526473999 82.43913269042969 L 48.98039627075195 4.724839210510254 C 50.1407356262207 2.735681533813477 52.29213333129883 1.49999737739563 54.59497451782227 1.49999737739563 L 145.4050598144531 1.49999737739563 C 147.7079010009766 1.49999737739563 149.8592681884766 2.735681533813477 151.0196380615234 4.724839210510254 L 196.3529510498047 82.43913269042969 C 197.5313873291016 84.45931243896484 197.5313873291016 86.96926116943359 196.3529510498047 88.98944091796875 L 151.0196380615234 166.7037353515625 C 149.8592681884766 168.6928863525391 147.7079010009766 169.9285736083984 145.4050598144531 169.9285736083984 Z" stroke="none"/>
      <path d="M 54.594970703125 3.000015258789063 C 52.82353210449219 3.000015258789063 51.16864013671875 3.950531005859375 50.27607727050781 5.480621337890625 L 4.942718505859375 83.19492340087891 C 4.036224365234375 84.74892425537109 4.036224365234375 86.67964935302734 4.942718505859375 88.23365020751953 L 50.27606201171875 165.9479217529297 C 51.16864013671875 167.4780426025391 52.82353210449219 168.4285583496094 54.59494018554688 168.4285583496094 L 145.4050598144531 168.4285583496094 C 147.1764678955078 168.4285583496094 148.8313598632813 167.4780426025391 149.7239379882813 165.9479217529297 L 195.0572814941406 88.23365020751953 C 195.9637451171875 86.67964935302734 195.9637451171875 84.74892425537109 195.0572814941406 83.19492340087891 L 149.7239379882813 5.48065185546875 C 148.8313598632813 3.950531005859375 147.1764678955078 3.000015258789063 145.4050598144531 3.000015258789063 L 54.594970703125 3.000015258789063 M 54.594970703125 1.52587890625e-05 L 145.4050598144531 1.52587890625e-05 C 148.2503662109375 1.52587890625e-05 150.881591796875 1.51129150390625 152.3152770996094 3.969009399414063 L 197.6486053466797 81.68331146240234 C 199.1016082763672 84.17420196533203 199.1016082763672 87.25437164306641 197.6486053466797 89.74526214599609 L 152.3152770996094 167.4595336914063 C 150.881591796875 169.9172821044922 148.2503662109375 171.4285583496094 145.4050598144531 171.4285583496094 L 54.59494018554688 171.4285583496094 C 51.74961853027344 171.4285583496094 49.11842346191406 169.9172821044922 47.68472290039063 167.4595336914063 L 2.351394653320313 89.74526214599609 C 0.8983612060546875 87.25434112548828 0.8983612060546875 84.17420196533203 2.351394653320313 81.68331146240234 L 47.68475341796875 3.969009399414063 C 49.11842346191406 1.51129150390625 51.7496337890625 1.52587890625e-05 54.594970703125 1.52587890625e-05 Z" stroke="none" fill="#fff"/>
    </g>
    <path id="node-js" d="M124.755,33.486,75.42,4.869a10.676,10.676,0,0,0-10.312,0L15.387,33.486A10.62,10.62,0,0,0,10,42.508V99.666a10.7,10.7,0,0,0,5.434,9.034l13.109,7.475c6.289,3.1,8.031,3.1,10.892,3.1,9.314,0,14.151-5.632,14.151-15.455V47.389c0-.8.5-1.983-.285-1.983H47.018c-.8,0-2.372,1.186-2.372,1.982v56.429c0,4.354-4.041,8.687-11.4,5.007L19.7,100.986a1.5,1.5,0,0,1-.756-1.32V42.508a1.843,1.843,0,0,1,1-1.356l49.6-28.568a1.686,1.686,0,0,1,1.581,0L120.25,41.146c.471.283.4.807.4,1.362V99.666c0,.545.1,1.076-.361,1.339L70.961,129.589a1.45,1.45,0,0,1-1.436,0l-12.648-7.543a1.233,1.233,0,0,0-1.207-.1,32.9,32.9,0,0,1-7.465,3.4c-.813.283-2.011.773.456,2.156L65.2,137.29a10.421,10.421,0,0,0,10.408,0L124.757,108.7a10.153,10.153,0,0,0,4.83-9.034V42.508a10.122,10.122,0,0,0-4.831-9.023ZM85.693,90.608c-13.106,0-15.992-3.616-16.954-10.132-.114-.7-.709-1.541-1.424-1.541h-6.4c-.792,0-1.431.961-1.431,1.75,0,8.344,4.538,18.454,26.213,18.454,15.689,0,24.686-6.1,24.686-16.886,0-10.7-7.228-13.505-22.444-15.519C72.555,64.7,70.992,63.674,70.992,60.07c0-2.971,1.323-6.933,12.712-6.933,10.175,0,13.926,2.184,15.469,9.043a1.413,1.413,0,0,0,1.387,1.108h6.431a1.468,1.468,0,0,0,1.049-.443,1.447,1.447,0,0,0,.376-1.094c-1-11.812-8.844-17.316-24.713-17.316-14.118,0-22.538,5.961-22.538,15.954,0,10.839,8.379,13.834,21.93,15.174,16.211,1.589,17.472,3.959,17.472,7.147C100.567,88.249,96.121,90.608,85.693,90.608Z" transform="translate(29.707 29.348)" fill="#83cd29"/>
  </g>
</svg>
