<svg xmlns="http://www.w3.org/2000/svg" xmlns:xlink="http://www.w3.org/1999/xlink" width="200" height="200" viewBox="0 0 200 200">
  <defs>
    <linearGradient id="linear-gradient" x1="0.13" y1="0.12" x2="0.796" y2="0.782" gradientUnits="objectBoundingBox">
      <stop offset="0" stop-color="#387eb8"/>
      <stop offset="1" stop-color="#366994"/>
    </linearGradient>
    <linearGradient id="linear-gradient-2" x1="0.191" y1="0.206" x2="0.907" y2="0.884" gradientUnits="objectBoundingBox">
      <stop offset="0" stop-color="#ffe052"/>
      <stop offset="1" stop-color="#ffc331"/>
    </linearGradient>
    <clipPath id="clip-Python">
      <rect width="200" height="200"/>
    </clipPath>
  </defs>
  <g id="Python" clip-path="url(#clip-Python)">
    <g id="Background" transform="translate(56.098 -24.094) rotate(30)" fill="rgba(255,239,135,0.5)" stroke-linejoin="round">
      <path d="M 145.4050598144531 169.9285736083984 L 54.59494781494141 169.9285736083984 C 52.29210662841797 169.9285736083984 50.1407356262207 168.6928863525391 48.98039627075195 166.7037353515625 L 3.647052526473999 88.98941802978516 C 2.468605279922485 86.96923065185547 2.468605279922485 84.45931243896484 3.647052526473999 82.43913269042969 L 48.98039627075195 4.724839210510254 C 50.1407356262207 2.735681533813477 52.29213333129883 1.49999737739563 54.59497451782227 1.49999737739563 L 145.4050598144531 1.49999737739563 C 147.7079010009766 1.49999737739563 149.8592681884766 2.735681533813477 151.0196380615234 4.724839210510254 L 196.3529510498047 82.43913269042969 C 197.5313873291016 84.45931243896484 197.5313873291016 86.96926116943359 196.3529510498047 88.98944091796875 L 151.0196380615234 166.7037353515625 C 149.8592681884766 168.6928863525391 147.7079010009766 169.9285736083984 145.4050598144531 169.9285736083984 Z" stroke="none"/>
      <path d="M 54.594970703125 3.000015258789063 C 52.82353210449219 3.000015258789063 51.16864013671875 3.950531005859375 50.27607727050781 5.480621337890625 L 4.942718505859375 83.19492340087891 C 4.036224365234375 84.74892425537109 4.036224365234375 86.67964935302734 4.942718505859375 88.23365020751953 L 50.27606201171875 165.9479217529297 C 51.16864013671875 167.4780426025391 52.82353210449219 168.4285583496094 54.59494018554688 168.4285583496094 L 145.4050598144531 168.4285583496094 C 147.1764678955078 168.4285583496094 148.8313598632813 167.4780426025391 149.7239379882813 165.9479217529297 L 195.0572814941406 88.23365020751953 C 195.9637451171875 86.67964935302734 195.9637451171875 84.74892425537109 195.0572814941406 83.19492340087891 L 149.7239379882813 5.48065185546875 C 148.8313598632813 3.950531005859375 147.1764678955078 3.000015258789063 145.4050598144531 3.000015258789063 L 54.594970703125 3.000015258789063 M 54.594970703125 1.52587890625e-05 L 145.4050598144531 1.52587890625e-05 C 148.2503662109375 1.52587890625e-05 150.881591796875 1.51129150390625 152.3152770996094 3.969009399414063 L 197.6486053466797 81.68331146240234 C 199.1016082763672 84.17420196533203 199.1016082763672 87.25437164306641 197.6486053466797 89.74526214599609 L 152.3152770996094 167.4595336914063 C 150.881591796875 169.9172821044922 148.2503662109375 171.4285583496094 145.4050598144531 171.4285583496094 L 54.59494018554688 171.4285583496094 C 51.74961853027344 171.4285583496094 49.11842346191406 169.9172821044922 47.68472290039063 167.4595336914063 L 2.351394653320313 89.74526214599609 C 0.8983612060546875 87.25434112548828 0.8983612060546875 84.17420196533203 2.351394653320313 81.68331146240234 L 47.68475341796875 3.969009399414063 C 49.11842346191406 1.51129150390625 51.7496337890625 1.52587890625e-05 54.594970703125 1.52587890625e-05 Z" stroke="none" fill="#fff"/>
    </g>
    <g id="python-2" data-name="python" transform="translate(38.803 38.928)">
      <path id="Path_284" data-name="Path 284" d="M60.575.072c-30.9,0-28.978,13.4-28.978,13.4l.034,13.884h29.5v4.169h-41.2S.145,29.285.145,60.467,17.406,90.546,17.406,90.546h10.3V76.076s-.555-17.261,16.986-17.261H73.943s16.434.266,16.434-15.882v-26.7S92.873.072,60.575.072ZM44.313,9.409a5.3,5.3,0,1,1-3.753,1.552,5.3,5.3,0,0,1,3.753-1.552Z" transform="translate(0 0)" fill="url(#linear-gradient)"/>
      <path id="Path_285" data-name="Path 285" d="M95.991,154.8c30.9,0,28.976-13.407,28.976-13.407l-.034-13.884H95.44v-4.164h41.2s19.776,2.243,19.776-28.941-17.261-30.078-17.261-30.078h-10.3V78.8s.555,17.261-16.986,17.261H82.623s-16.434-.266-16.434,15.884v26.705S63.7,154.8,95.991,154.8Zm16.262-9.336a5.3,5.3,0,1,1,3.753-1.553,5.3,5.3,0,0,1-3.753,1.553Z" transform="translate(-34.538 -33.622)" fill="url(#linear-gradient-2)"/>
    </g>
  </g>
</svg>
